<mxfile host="app.diagrams.net" modified="2024-07-15T08:23:17.830Z" agent="Mozilla/5.0 (Windows NT 10.0; Win64; x64) AppleWebKit/537.36 (KHTML, like Gecko) Chrome/126.0.0.0 Safari/537.36" version="24.6.2" etag="L0LfO7wmHkcHokL5WQY6" type="github">
  <diagram name="Strona-1" id="DVsfjHDkRnFTxF43568d">
    <mxGraphModel>
      <root>
        <mxCell id="0" />
        <mxCell id="1" parent="0" />
      </root>
    </mxGraphModel>
  </diagram>
</mxfile>
